<svg width="16" height="16" viewBox="0 0 16 16" fill="none" xmlns="http://www.w3.org/2000/svg">
<rect width="16" height="16" rx="2" fill="#D33E43"/>
<path fill-rule="evenodd" clip-rule="evenodd" d="M8 5C5.23858 5 3 7.23858 3 10C3 12.7614 5.23858 15 8 15C10.7614 15 13 12.7614 13 10C13 7.23858 10.7614 5 8 5ZM9.32697 7.00191C9.34414 7.00086 9.36142 7.00022 9.37827 7.00005C9.90052 6.99486 10.2659 7.40535 10.298 7.78283C10.4086 8.36729 10.0663 9.0729 9.30133 9.27267C9.21126 9.29171 9.11552 9.29795 9.02337 9.28429C8.38813 9.18332 8.13317 8.60416 8.21278 8.15355C8.26726 7.65696 8.64321 7.09383 9.32697 7.00191ZM5.65573 7.68388C5.7231 7.36818 6.05429 7.03233 6.47945 7.02421C6.54019 7.02304 6.60265 7.02862 6.66674 7.04186C7.36788 7.18971 7.71859 7.79773 7.73561 8.32358C7.75927 8.72221 7.51971 9.216 6.95424 9.2894C6.87508 9.29893 6.79402 9.29756 6.71565 9.28429C5.87902 9.0865 5.51371 8.30935 5.65573 7.68388ZM9.91926 9.94024C9.99115 9.40652 10.4954 8.83495 11.2309 8.80068C11.7624 8.82124 12.0441 9.2733 11.9944 9.64571C11.9721 10.2088 11.4357 10.8632 10.6493 10.8708C10.0854 10.84 9.82193 10.3252 9.91926 9.94024ZM4.07033 9.31913C4.17259 9.07139 4.48034 8.92541 4.79325 8.9275C4.91569 8.92833 5.0392 8.95198 5.15112 9.00091C5.83812 9.26371 6.24406 9.93595 6.04642 10.5149C5.95316 10.7856 5.62268 11.0105 5.24656 10.9604C4.34535 10.8212 3.79753 9.98183 4.07033 9.31913ZM6.45679 10.7202C6.854 10.3593 7.47706 10.1169 8.0905 10.1158C8.39009 10.1153 8.68732 10.1726 8.95478 10.3017C9.62206 10.615 10.0581 11.1424 10.465 11.6442L10.467 11.6473C10.6661 11.9559 10.9049 12.3258 10.7418 12.6728C10.5337 13.0143 9.97067 13.0664 9.56318 12.9306C9.46655 12.9021 9.37001 12.8706 9.27307 12.8389C8.88985 12.7138 8.50045 12.5866 8.07559 12.637C7.77932 12.6488 7.50204 12.7303 7.22544 12.8116C6.91625 12.9025 6.60791 12.9931 6.27486 12.9859C5.75037 12.9832 5.37179 12.5435 5.53883 12.1613C5.67632 11.6304 6.02776 11.1409 6.45679 10.7202Z" fill="white"/>
<path d="M2 6L8 2L14 6" stroke="white" stroke-width="1.29156" stroke-linecap="round"/>
</svg>
