<svg width="72" height="73" viewBox="0 0 72 73" fill="none" xmlns="http://www.w3.org/2000/svg">
<rect x="11" y="23" width="50" height="50" rx="25" fill="white"/>
<g clip-path="url(#clip0_6_94)">
<path d="M42.0301 31.1245C41.9564 31.1254 41.8808 31.129 41.8057 31.1349C38.8143 31.652 37.1695 34.8197 36.9312 37.613C36.5829 40.1477 37.6984 43.4055 40.4775 43.9734C40.8806 44.0503 41.2995 44.0152 41.6935 43.9081C45.0401 42.7844 46.5377 38.8153 46.054 35.5277C45.9133 33.4043 44.3149 31.0953 42.0301 31.1245ZM29.3481 31.2604C27.488 31.3061 26.0391 33.1952 25.7444 34.9711C25.123 38.4894 26.7212 42.8609 30.3814 43.9734C30.7242 44.0481 31.0789 44.0558 31.4252 44.0022C33.8991 43.5893 34.9471 40.8117 34.8436 38.5694C34.7692 35.6115 33.2349 32.1913 30.1674 31.3597C29.887 31.2852 29.6138 31.2538 29.3481 31.2604ZM50.1352 41.2531C46.9174 41.4459 44.7114 44.661 44.3969 47.6632C43.9711 49.8285 45.1238 52.7245 47.5909 52.8974C51.031 52.8549 53.3778 49.1739 53.4753 46.0065C53.6929 43.9117 52.4607 41.3688 50.1352 41.2531ZM21.9711 41.9665C20.6021 41.9547 19.2557 42.7759 18.8084 44.1694C17.6149 47.8972 20.0116 52.6184 23.9543 53.4017C25.5997 53.6837 27.0456 52.4183 27.4536 50.8957C28.3182 47.6391 26.5423 43.8577 23.5367 42.3794C23.0471 42.1042 22.5067 41.9711 21.9711 41.9665ZM36.3963 48.651C33.7125 48.6567 30.9867 50.0206 29.2489 52.0507C27.372 54.417 25.8344 57.1706 25.2329 60.1568C24.5021 62.3064 26.1584 64.7802 28.453 64.7952C31.2135 64.8719 33.586 62.9736 36.331 62.8327C38.6599 62.4771 40.7453 63.6902 42.8391 64.4842C44.6218 65.2478 47.0852 64.9551 47.9954 63.0339C48.7113 61.0756 47.6576 58.9874 46.7846 57.2483C45.0041 54.4255 43.0967 51.4587 40.1774 49.6963C39.0073 48.97 37.7069 48.6482 36.3963 48.651Z" fill="#A52327"/>
</g>
<path d="M4 27L36 5L68 27" stroke="white" stroke-width="7" stroke-linecap="round"/>
<defs>
<clipPath id="clip0_6_94">
<rect width="35" height="33.75" fill="white" transform="translate(18.5 31.125)"/>
</clipPath>
</defs>
</svg>
