<svg width="119" height="65" viewBox="0 0 119 65" fill="none" xmlns="http://www.w3.org/2000/svg">
<path d="M0.996094 35.8008C0.996094 35.1367 1.03516 34.4336 1.11328 33.6914C1.52344 30.332 2.57812 27.3535 4.27734 24.7559C6.34766 21.5918 8.83789 20.0098 11.748 20.0098C12.998 20.0098 14.0918 20.2539 15.0293 20.7422C15.4199 20.2734 15.957 20.0293 16.6406 20.0098C17.0312 20.0098 17.2754 20.0391 17.373 20.0977C18.2129 20.3711 18.6328 21.2012 18.6328 22.5879C18.6328 23.1543 18.5352 24.375 18.3398 26.25C17.7344 31.7969 17.4316 35.2441 17.4316 36.5918C17.4316 37.4902 17.6172 38.3301 17.9883 39.1113C18.5352 40.2832 19.2578 40.8691 20.1562 40.8691C20.332 40.8691 20.5176 40.8496 20.7129 40.8105C21.2988 40.6934 22.1387 40.2441 23.2324 39.4629C24.3066 38.6816 25.166 38.291 25.8105 38.291C26.0645 38.291 26.3281 38.3789 26.6016 38.5547C27.168 38.9453 27.4512 39.4629 27.4512 40.1074C27.3926 41.123 26.6211 42.1777 25.1367 43.2715C23.3594 44.5215 21.4746 45.1465 19.4824 45.1465C17.0215 45.127 15.2051 43.8867 14.0332 41.4258C13.7598 41.7578 13.4473 42.0898 13.0957 42.4219C11.1621 44.2383 9.19922 45.1465 7.20703 45.1465C5.95703 45.1465 4.87305 44.8242 3.95508 44.1797C1.98242 42.7344 0.996094 39.9414 0.996094 35.8008ZM13.8867 26.1621C13.8867 26.1621 13.9551 25.498 14.0918 24.1699C13.6621 23.9551 13.2129 23.8477 12.7441 23.8477C12.3926 23.8477 12.0312 23.8965 11.6602 23.9941C9.84375 24.502 8.31055 26.1816 7.06055 29.0332C5.94727 31.5918 5.39062 34.1602 5.39062 36.7383C5.39062 36.8359 5.39062 36.9336 5.39062 37.0312C5.44922 39.4141 6.05469 40.6055 7.20703 40.6055C7.8125 40.5859 8.55469 40.2539 9.43359 39.6094C10.332 38.9648 10.9863 38.3594 11.3965 37.793C11.6504 37.4219 11.9922 36.3379 12.4219 34.541C13.2031 31.2012 13.6914 28.4082 13.8867 26.1621ZM26.2207 35.6836C26.2207 35.0195 26.2598 34.3164 26.3379 33.5742C26.748 30.2344 27.8027 27.2656 29.502 24.668C31.5723 21.4844 34.0625 19.8926 36.9727 19.8926C37.9883 19.8926 38.9746 20.0781 39.9316 20.4492L42.3047 3.57422C42.6172 1.28906 43.4375 0.136719 44.7656 0.117188C44.9805 0.117188 45.1953 0.136719 45.4102 0.175781C46.3086 0.390625 46.7578 1.24023 46.7578 2.72461C46.7578 3.33008 46.3379 6.76758 45.498 13.0371C43.6035 27.3145 42.6562 35.166 42.6562 36.5918C42.6562 37.4902 42.8418 38.3301 43.2129 39.1113C43.7598 40.2832 44.4922 40.8691 45.4102 40.8691C45.5859 40.8691 45.7715 40.8496 45.9668 40.8105C46.5527 40.6934 47.4023 40.2441 48.5156 39.4629C49.6094 38.6816 50.4785 38.291 51.123 38.291C51.3965 38.291 51.6504 38.3887 51.8848 38.584C52.3535 38.9746 52.5879 39.4727 52.5879 40.0781C52.5098 41.0938 51.748 42.1582 50.3027 43.2715C48.5449 44.5215 46.6797 45.1465 44.707 45.1465C42.2656 45.127 40.4199 43.8965 39.1699 41.4551C38.877 41.8066 38.5449 42.1484 38.1738 42.4805C36.2988 44.1992 34.3945 45.0586 32.4609 45.0586C31.2305 45.0586 30.166 44.7461 29.2676 44.1211C27.2363 42.7148 26.2207 39.9023 26.2207 35.6836ZM36.6504 37.6758C36.9043 37.3047 37.2168 36.3379 37.5879 34.7754C38.3691 31.3965 38.9648 27.8516 39.375 24.1406C38.9258 23.9258 38.457 23.7891 37.9688 23.7305C37.6172 23.7305 37.2559 23.7793 36.8848 23.877C35.0684 24.3848 33.5352 26.0645 32.2852 28.916C31.1719 31.4746 30.6152 34.043 30.6152 36.6211C30.6152 36.8359 30.625 37.0508 30.6445 37.2656C30.7422 39.4336 31.3477 40.5176 32.4609 40.5176C33.0273 40.498 33.7402 40.1855 34.5996 39.5801C35.5176 38.916 36.2012 38.2812 36.6504 37.6758ZM56.6016 20.3906C57.2852 20.4102 57.9297 20.4785 58.5352 20.5957C61.543 21.2402 63.3887 23.584 64.0723 27.627C64.4434 27.4121 65.0586 27.0117 65.918 26.4258C67.0898 25.625 67.9785 25.2246 68.584 25.2246C68.877 25.2246 69.1602 25.3125 69.4336 25.4883C70.0391 25.8789 70.3418 26.4062 70.3418 27.0703C70.3223 27.7344 69.8926 28.4668 69.0527 29.2676C67.8613 30.3613 66.3184 31.2891 64.4238 32.0508C64.4043 35.0977 63.9453 37.6758 63.0469 39.7852C61.582 43.2227 59.1797 44.9414 55.8398 44.9414C54.6484 44.9414 53.457 44.5605 52.2656 43.7988C49.5117 41.9824 48.1348 38.7109 48.1348 33.9844C48.1348 31.1328 48.6133 28.5352 49.5703 26.1914C51.0742 22.5 53.418 20.5664 56.6016 20.3906ZM60.2637 32.8125C59.502 32.793 58.7793 32.7148 58.0957 32.5781C55.5176 32.0312 53.8574 30.6641 53.1152 28.4766C52.6074 30.1172 52.3535 31.9043 52.3535 33.8379C52.3535 34.7754 52.4414 35.6836 52.6172 36.5625C53.1641 39.2383 54.3555 40.5762 56.1914 40.5762C56.7969 40.5762 57.3438 40.3906 57.832 40.0195C59.2578 38.9258 60.0684 36.5234 60.2637 32.8125ZM59.8242 28.8281C59.8242 28.8281 59.9609 28.8281 60.2344 28.8281C59.9414 26.1523 59.2383 24.8047 58.125 24.7852C58.0273 24.7852 57.9297 24.7949 57.832 24.8145C57.4023 24.9707 57.1875 25.293 57.1875 25.7812C57.1875 26.2109 57.2559 26.6309 57.3926 27.041C57.8223 28.2324 58.6328 28.8281 59.8242 28.8281ZM70.3125 23.1738C70.332 23.0566 70.3418 22.9395 70.3418 22.8223C70.6152 20.7715 71.416 19.7461 72.7441 19.7461C72.959 19.7461 73.1738 19.7656 73.3887 19.8047C74.2871 20.0195 74.7363 20.8691 74.7363 22.3535C74.7363 22.7246 74.6875 23.3984 74.5898 24.375C76.0742 21.6016 78.1934 20.2051 80.9473 20.1855C81.9043 20.1855 82.793 20.4785 83.6133 21.0645C84.8047 21.9434 85.4004 23.0957 85.4004 24.5215C85.4004 24.7559 85.3906 25.3223 85.3711 26.2207C85.3516 28.1934 85.3418 29.7754 85.3418 30.9668C85.3418 34.9316 85.459 37.2656 85.6934 37.9688C85.752 38.1445 85.8105 38.3301 85.8691 38.5254C86.4355 39.9902 87.207 40.7227 88.1836 40.7227C88.3789 40.7227 88.584 40.7031 88.7988 40.6641C89.3652 40.5273 90.1953 40.0684 91.2891 39.2871C92.3633 38.5059 93.2227 38.1152 93.8672 38.1152C94.1211 38.1152 94.3652 38.1934 94.5996 38.3496C95.2051 38.7207 95.5078 39.2969 95.5078 40.0781C95.5078 40.1367 95.498 40.2148 95.4785 40.3125C95.3418 41.25 94.5312 42.2168 93.0469 43.2129C91.2305 44.4434 89.4238 45.0586 87.627 45.0586C86.1621 45.0586 84.9219 44.6582 83.9062 43.8574C81.8164 42.1777 80.7715 38.4961 80.7715 32.8125C80.7715 32.4805 80.7812 31.9434 80.8008 31.2012C80.8398 30.127 80.8594 29.1992 80.8594 28.418C80.8398 26.3477 80.6055 25.2637 80.1562 25.166C80.0781 25.166 79.9805 25.1855 79.8633 25.2246C78.75 25.5957 77.334 27.793 75.6152 31.8164C74.1309 35.3125 73.1738 38.2617 72.7441 40.6641L72.4805 42.2168C72.3633 42.9004 72.2559 43.6035 72.1582 44.3262C71.123 51.1035 70.4297 56.7773 70.0781 61.3477C70.0195 62.0508 69.8242 62.6855 69.4922 63.252C68.9258 64.209 68.2129 64.6875 67.3535 64.6875C66.9238 64.6875 66.5332 64.5508 66.1816 64.2773C65.5371 63.75 65.2148 62.9883 65.2148 61.9922C65.2148 61.7188 66.9141 48.7793 70.3125 23.1738ZM91.5527 39.6211C91.5527 39.2227 91.5762 38.8008 91.623 38.3555C91.8691 36.3516 92.502 34.5703 93.5215 33.0117C94.7637 31.1016 96.2578 30.1465 98.0039 30.1465C98.4727 30.1465 98.9238 30.2051 99.3574 30.3223C100.904 30.7676 101.678 31.8574 101.678 33.5918C101.678 33.7207 101.672 33.8555 101.66 33.9961C101.543 35.5664 100.84 36.8848 99.5508 37.9512C98.2852 39.0059 96.8145 39.5332 95.1387 39.5332C94.8223 39.5332 94.5117 39.5039 94.207 39.4453C94.1836 39.6211 94.1719 39.8672 94.1719 40.1836C94.1719 40.8633 94.2891 41.3906 94.5234 41.7656C94.8398 42.2461 95.4902 42.5273 96.4746 42.6094C96.9082 42.6094 97.3359 42.5625 97.7578 42.4688C98.4961 42.293 99.3691 41.877 100.377 41.2207C101.033 40.7871 101.496 40.5703 101.766 40.5703C101.918 40.5703 102.076 40.6172 102.24 40.7109C102.615 40.9336 102.803 41.2559 102.803 41.6777C102.803 41.8184 102.773 41.9707 102.715 42.1348C102.398 42.8965 101.449 43.6172 99.8672 44.2969C98.4023 44.9297 97.1133 45.2461 96 45.2461C95.5781 45.2461 95.1855 45.2109 94.8223 45.1406C92.6426 44.6953 91.5527 42.8555 91.5527 39.6211ZM97.1953 32.9062C96.1289 33.6211 95.291 34.9805 94.6816 36.9844C94.9746 37.0547 95.2559 37.0898 95.5254 37.0898C96.498 37.0898 97.3477 36.791 98.0742 36.1934C98.8828 35.5371 99.2871 34.7578 99.2871 33.8555C99.2871 32.9531 99 32.4961 98.4258 32.4844C98.0156 32.4961 97.6055 32.6367 97.1953 32.9062ZM104.021 12.5684C104.041 12.5684 104.139 12.5684 104.314 12.5684C105.408 12.6074 106.395 12.627 107.273 12.627L108.562 3.57422C108.641 2.96875 108.738 2.46094 108.855 2.05078C109.207 0.761719 109.92 0.117188 110.994 0.117188C111.209 0.117188 111.424 0.136719 111.639 0.175781C112.537 0.390625 112.986 1.24023 112.986 2.72461C112.986 3.19336 112.596 6.49414 111.814 12.627H114.891C115.418 12.627 115.877 12.7344 116.268 12.9492C116.951 13.3594 117.293 13.9648 117.293 14.7656C117.293 15.1172 117.205 15.4492 117.029 15.7617C116.58 16.5039 115.848 16.875 114.832 16.875H111.199C109.676 28.5938 108.914 35.166 108.914 36.5918C108.914 37.4902 109.1 38.3301 109.471 39.1113C110.018 40.2832 110.74 40.8691 111.639 40.8691C111.854 40.8691 112.078 40.8398 112.312 40.7812C112.84 40.6445 113.592 40.1953 114.568 39.4336C115.525 38.6719 116.326 38.291 116.971 38.291C117.244 38.291 117.508 38.3496 117.762 38.4668C118.465 38.8184 118.816 39.3555 118.816 40.0781C118.758 41.0938 118.006 42.1484 116.561 43.2422C114.803 44.5117 112.938 45.1465 110.965 45.1465C109.031 45.127 107.449 44.3164 106.219 42.7148C104.969 41.0156 104.344 38.877 104.344 36.2988C104.344 35.7324 105.115 29.2578 106.658 16.875H104.021C103.904 16.875 103.787 16.875 103.67 16.875C102.322 16.7578 101.648 16.0547 101.648 14.7656C101.648 14.4141 101.707 14.0918 101.824 13.7988C102.176 12.9785 102.908 12.5684 104.021 12.5684Z" fill="white"/>
</svg>
